<svg width="169" height="42" viewBox="0 0 169 42" fill="none" xmlns="http://www.w3.org/2000/svg">
<path d="M29.25 7.5C28.2557 7.5008 27.3023 7.89614 26.5992 8.59923C25.8961 9.30232 25.5008 10.2557 25.5 11.25C25.5 11.7855 25.617 12.294 25.821 12.7575L22.8885 16.056C21.8923 15.3684 20.7105 15.0001 19.5 15C18.39 15 17.364 15.324 16.4715 15.849L13.0605 12.4395L13.026 12.474C13.32 11.877 13.5 11.2125 13.5 10.5C13.5 9.60999 13.2361 8.73996 12.7416 7.99994C12.2471 7.25992 11.5443 6.68314 10.7221 6.34254C9.89981 6.00195 8.99501 5.91283 8.1221 6.08647C7.24918 6.2601 6.44736 6.68869 5.81802 7.31802C5.18869 7.94736 4.7601 8.74918 4.58647 9.6221C4.41283 10.495 4.50195 11.3998 4.84254 12.2221C5.18314 13.0443 5.75991 13.7471 6.49994 14.2416C7.23996 14.7361 8.10999 15 9 15C9.7125 15 10.3755 14.82 10.974 14.526L10.9395 14.5605L14.3505 17.97C13.7995 18.885 13.5056 19.9319 13.5 21C13.5 22.4955 14.07 23.8485 14.9775 24.9015L11.112 28.7655C10.6788 28.5921 10.2167 28.502 9.75 28.5C7.683 28.5 6 30.1815 6 32.25C6 34.3185 7.683 36 9.75 36C11.817 36 13.5 34.3185 13.5 32.25C13.5 31.7685 13.401 31.311 13.2345 30.8865L17.4915 26.6295C18.123 26.8545 18.792 27 19.5 27C22.809 27 25.5 24.309 25.5 21C25.5 20.046 25.2555 19.1565 24.858 18.354L28.0335 14.7795C28.4175 14.9115 28.8225 15 29.25 15C31.3185 15 33 13.3185 33 11.25C33 9.1815 31.3185 7.5 29.25 7.5ZM19.5 24C17.8455 24 16.5 22.6545 16.5 21C16.5 19.3455 17.8455 18 19.5 18C21.1545 18 22.5 19.3455 22.5 21C22.5 22.6545 21.1545 24 19.5 24Z" fill="#226CE0"/>
<path d="M46.26 28.24C45.1533 28.24 44.08 28.0933 43.04 27.8C42.0133 27.4933 41.1867 27.1 40.56 26.62L41.66 24.18C42.26 24.62 42.9733 24.9733 43.8 25.24C44.6267 25.5067 45.4533 25.64 46.28 25.64C47.2 25.64 47.88 25.5067 48.32 25.24C48.76 24.96 48.98 24.5933 48.98 24.14C48.98 23.8067 48.8467 23.5333 48.58 23.32C48.3267 23.0933 47.9933 22.9133 47.58 22.78C47.18 22.6467 46.6333 22.5 45.94 22.34C44.8733 22.0867 44 21.8333 43.32 21.58C42.64 21.3267 42.0533 20.92 41.56 20.36C41.08 19.8 40.84 19.0533 40.84 18.12C40.84 17.3067 41.06 16.5733 41.5 15.92C41.94 15.2533 42.6 14.7267 43.48 14.34C44.3733 13.9533 45.46 13.76 46.74 13.76C47.6333 13.76 48.5067 13.8667 49.36 14.08C50.2133 14.2933 50.96 14.6 51.6 15L50.6 17.46C49.3067 16.7267 48.0133 16.36 46.72 16.36C45.8133 16.36 45.14 16.5067 44.7 16.8C44.2733 17.0933 44.06 17.48 44.06 17.96C44.06 18.44 44.3067 18.8 44.8 19.04C45.3067 19.2667 46.0733 19.4933 47.1 19.72C48.1667 19.9733 49.04 20.2267 49.72 20.48C50.4 20.7333 50.98 21.1333 51.46 21.68C51.9533 22.2267 52.2 22.9667 52.2 23.9C52.2 24.7 51.9733 25.4333 51.52 26.1C51.08 26.7533 50.4133 27.2733 49.52 27.66C48.6267 28.0467 47.54 28.24 46.26 28.24ZM53.7939 17.24H56.9139V28H53.7939V17.24ZM55.3539 15.74C54.7806 15.74 54.3139 15.5733 53.9539 15.24C53.5939 14.9067 53.4139 14.4933 53.4139 14C53.4139 13.5067 53.5939 13.0933 53.9539 12.76C54.3139 12.4267 54.7806 12.26 55.3539 12.26C55.9272 12.26 56.3939 12.42 56.7539 12.74C57.1139 13.06 57.2939 13.46 57.2939 13.94C57.2939 14.46 57.1139 14.8933 56.7539 15.24C56.3939 15.5733 55.9272 15.74 55.3539 15.74ZM65.8895 27.48C65.5829 27.7067 65.2029 27.88 64.7495 28C64.3095 28.1067 63.8495 28.16 63.3695 28.16C62.0762 28.16 61.0829 27.8333 60.3895 27.18C59.6962 26.5267 59.3495 25.5667 59.3495 24.3V14.86H62.4695V17.48H65.1295V19.88H62.4695V24.26C62.4695 24.7133 62.5829 25.0667 62.8095 25.32C63.0362 25.56 63.3629 25.68 63.7895 25.68C64.2695 25.68 64.6962 25.5467 65.0695 25.28L65.8895 27.48ZM72.3397 25.66C72.8997 25.66 73.393 25.58 73.8197 25.42C74.2597 25.2467 74.6664 24.98 75.0397 24.62L76.6997 26.42C75.6864 27.58 74.2064 28.16 72.2597 28.16C71.0464 28.16 69.973 27.9267 69.0397 27.46C68.1064 26.98 67.3864 26.32 66.8797 25.48C66.373 24.64 66.1197 23.6867 66.1197 22.62C66.1197 21.5667 66.3664 20.62 66.8597 19.78C67.3664 18.9267 68.053 18.2667 68.9197 17.8C69.7997 17.32 70.7864 17.08 71.8797 17.08C72.9064 17.08 73.8397 17.3 74.6797 17.74C75.5197 18.1667 76.1864 18.7933 76.6797 19.62C77.1864 20.4333 77.4397 21.4 77.4397 22.52L69.4797 24.06C69.7064 24.5933 70.0597 24.9933 70.5397 25.26C71.033 25.5267 71.633 25.66 72.3397 25.66ZM71.8797 19.44C71.093 19.44 70.453 19.6933 69.9597 20.2C69.4664 20.7067 69.2064 21.4067 69.1797 22.3L74.4197 21.28C74.273 20.72 73.973 20.2733 73.5197 19.94C73.0664 19.6067 72.5197 19.44 71.8797 19.44ZM83.9569 28.24C82.8502 28.24 81.7769 28.0933 80.7369 27.8C79.7102 27.4933 78.8835 27.1 78.2569 26.62L79.3569 24.18C79.9569 24.62 80.6702 24.9733 81.4969 25.24C82.3235 25.5067 83.1502 25.64 83.9769 25.64C84.8969 25.64 85.5769 25.5067 86.0169 25.24C86.4569 24.96 86.6769 24.5933 86.6769 24.14C86.6769 23.8067 86.5435 23.5333 86.2769 23.32C86.0235 23.0933 85.6902 22.9133 85.2769 22.78C84.8769 22.6467 84.3302 22.5 83.6369 22.34C82.5702 22.0867 81.6969 21.8333 81.0169 21.58C80.3369 21.3267 79.7502 20.92 79.2569 20.36C78.7769 19.8 78.5369 19.0533 78.5369 18.12C78.5369 17.3067 78.7569 16.5733 79.1969 15.92C79.6369 15.2533 80.2969 14.7267 81.1769 14.34C82.0702 13.9533 83.1569 13.76 84.4369 13.76C85.3302 13.76 86.2035 13.8667 87.0569 14.08C87.9102 14.2933 88.6569 14.6 89.2969 15L88.2969 17.46C87.0035 16.7267 85.7102 16.36 84.4169 16.36C83.5102 16.36 82.8369 16.5067 82.3969 16.8C81.9702 17.0933 81.7569 17.48 81.7569 17.96C81.7569 18.44 82.0035 18.8 82.4969 19.04C83.0035 19.2667 83.7702 19.4933 84.7969 19.72C85.8635 19.9733 86.7369 20.2267 87.4169 20.48C88.0969 20.7333 88.6769 21.1333 89.1569 21.68C89.6502 22.2267 89.8969 22.9667 89.8969 23.9C89.8969 24.7 89.6702 25.4333 89.2169 26.1C88.7769 26.7533 88.1102 27.2733 87.2169 27.66C86.3235 28.0467 85.2369 28.24 83.9569 28.24ZM96.9108 25.66C97.4708 25.66 97.9641 25.58 98.3908 25.42C98.8308 25.2467 99.2374 24.98 99.6108 24.62L101.271 26.42C100.257 27.58 98.7774 28.16 96.8308 28.16C95.6174 28.16 94.5441 27.9267 93.6108 27.46C92.6774 26.98 91.9574 26.32 91.4508 25.48C90.9441 24.64 90.6908 23.6867 90.6908 22.62C90.6908 21.5667 90.9374 20.62 91.4308 19.78C91.9374 18.9267 92.6241 18.2667 93.4908 17.8C94.3708 17.32 95.3574 17.08 96.4508 17.08C97.4774 17.08 98.4108 17.3 99.2508 17.74C100.091 18.1667 100.757 18.7933 101.251 19.62C101.757 20.4333 102.011 21.4 102.011 22.52L94.0508 24.06C94.2774 24.5933 94.6308 24.9933 95.1108 25.26C95.6041 25.5267 96.2041 25.66 96.9108 25.66ZM96.4508 19.44C95.6641 19.44 95.0241 19.6933 94.5308 20.2C94.0374 20.7067 93.7774 21.4067 93.7508 22.3L98.9908 21.28C98.8441 20.72 98.5441 20.2733 98.0908 19.94C97.6374 19.6067 97.0908 19.44 96.4508 19.44ZM109.128 25.66C109.688 25.66 110.181 25.58 110.608 25.42C111.048 25.2467 111.455 24.98 111.828 24.62L113.488 26.42C112.475 27.58 110.995 28.16 109.048 28.16C107.835 28.16 106.761 27.9267 105.828 27.46C104.895 26.98 104.175 26.32 103.668 25.48C103.161 24.64 102.908 23.6867 102.908 22.62C102.908 21.5667 103.155 20.62 103.648 19.78C104.155 18.9267 104.841 18.2667 105.708 17.8C106.588 17.32 107.575 17.08 108.668 17.08C109.695 17.08 110.628 17.3 111.468 17.74C112.308 18.1667 112.975 18.7933 113.468 19.62C113.975 20.4333 114.228 21.4 114.228 22.52L106.268 24.06C106.495 24.5933 106.848 24.9933 107.328 25.26C107.821 25.5267 108.421 25.66 109.128 25.66ZM108.668 19.44C107.881 19.44 107.241 19.6933 106.748 20.2C106.255 20.7067 105.995 21.4067 105.968 22.3L111.208 21.28C111.061 20.72 110.761 20.2733 110.308 19.94C109.855 19.6067 109.308 19.44 108.668 19.44ZM120.545 23.78L119.045 25.26V28H115.925V13.16H119.045V21.56L123.605 17.24H127.325L122.845 21.8L127.725 28H123.945L120.545 23.78ZM133.68 25.66C134.24 25.66 134.733 25.58 135.16 25.42C135.6 25.2467 136.006 24.98 136.38 24.62L138.04 26.42C137.026 27.58 135.546 28.16 133.6 28.16C132.386 28.16 131.313 27.9267 130.38 27.46C129.446 26.98 128.726 26.32 128.22 25.48C127.713 24.64 127.46 23.6867 127.46 22.62C127.46 21.5667 127.706 20.62 128.2 19.78C128.706 18.9267 129.393 18.2667 130.26 17.8C131.14 17.32 132.126 17.08 133.22 17.08C134.246 17.08 135.18 17.3 136.02 17.74C136.86 18.1667 137.526 18.7933 138.02 19.62C138.526 20.4333 138.78 21.4 138.78 22.52L130.82 24.06C131.046 24.5933 131.4 24.9933 131.88 25.26C132.373 25.5267 132.973 25.66 133.68 25.66ZM133.22 19.44C132.433 19.44 131.793 19.6933 131.3 20.2C130.806 20.7067 130.546 21.4067 130.52 22.3L135.76 21.28C135.613 20.72 135.313 20.2733 134.86 19.94C134.406 19.6067 133.86 19.44 133.22 19.44ZM143.457 18.66C143.83 18.14 144.33 17.7467 144.957 17.48C145.597 17.2133 146.33 17.08 147.157 17.08V19.96C146.81 19.9333 146.577 19.92 146.457 19.92C145.563 19.92 144.863 20.1733 144.357 20.68C143.85 21.1733 143.597 21.92 143.597 22.92V28H140.477V17.24H143.457V18.66Z" fill="#226CE0"/>
</svg>
